<svg width="20" height="18" viewBox="0 0 20 18" fill="none" xmlns="http://www.w3.org/2000/svg">
<path d="M13.9336 2.25C12.813 2.25 11.7973 2.439 11.0036 2.79506C10.2105 3.15112 9.55859 3.73106 9.55859 4.5V6.75C9.55859 6.82256 9.58547 6.89288 9.59797 6.96094C8.97236 6.81786 8.32907 6.74698 7.68359 6.75C6.56297 6.75 5.54734 6.939 4.75359 7.29506C3.96047 7.65112 3.30859 8.23106 3.30859 9V13.5C3.30859 14.2689 3.96047 14.8489 4.75422 15.2049C5.54734 15.561 6.56297 15.75 7.68359 15.75C8.80422 15.75 9.81984 15.561 10.6136 15.2049C11.4061 14.8489 12.0586 14.2689 12.0586 13.5V13.2716C12.67 13.4204 13.3003 13.4971 13.9336 13.5C15.0542 13.5 16.0698 13.311 16.8636 12.9549C17.6561 12.5989 18.3086 12.0189 18.3086 11.25V4.5C18.3086 3.73106 17.6567 3.15112 16.863 2.79506C16.0705 2.439 15.0548 2.25 13.9336 2.25ZM13.9336 3.375C14.8855 3.375 15.733 3.5595 16.2967 3.81431C16.8611 4.06913 17.0586 4.33744 17.0586 4.5C17.0586 4.66312 16.8611 4.93087 16.2967 5.18569C15.7336 5.4405 14.8855 5.625 13.9336 5.625C12.9817 5.625 12.1342 5.4405 11.5705 5.18569C11.0061 4.93087 10.8086 4.66256 10.8086 4.5C10.8086 4.33688 11.0061 4.06913 11.5705 3.81431C12.1336 3.5595 12.9817 3.375 13.9336 3.375ZM10.8086 6.09975C10.8742 6.13237 10.9355 6.17456 11.0042 6.20494C11.7973 6.561 12.813 6.75 13.9336 6.75C15.0542 6.75 16.0698 6.561 16.8636 6.20494C16.9317 6.17456 16.993 6.13237 17.0586 6.09975V6.75C17.0586 6.91312 16.8611 7.18087 16.2967 7.43569C15.733 7.6905 14.8855 7.875 13.9336 7.875C12.9817 7.875 12.1342 7.6905 11.5705 7.43569C11.0061 7.18087 10.8086 6.91256 10.8086 6.75V6.09975ZM7.68359 7.875C8.63547 7.875 9.48297 8.0595 10.0467 8.31431C10.6111 8.56913 10.8086 8.83744 10.8086 9C10.8086 9.16312 10.6111 9.43087 10.0467 9.68569C9.48297 9.9405 8.63547 10.125 7.68359 10.125C6.73172 10.125 5.88422 9.9405 5.32047 9.68569C4.75609 9.43087 4.55859 9.16256 4.55859 9C4.55859 8.83688 4.75609 8.56913 5.32047 8.31431C5.88359 8.0595 6.73172 7.875 7.68359 7.875ZM17.0586 8.34975V9C17.0586 9.16312 16.8611 9.43087 16.2967 9.68569C15.733 9.9405 14.8855 10.125 13.9336 10.125C13.2969 10.1281 12.6638 10.039 12.0586 9.86119V9C12.0586 8.92744 12.0317 8.85712 12.0192 8.78906C12.6005 8.92519 13.2448 9 13.9336 9C15.0542 9 16.0698 8.811 16.8636 8.45494C16.9317 8.42456 16.993 8.38237 17.0586 8.34975V8.34975ZM4.55859 10.5997C4.62422 10.6324 4.68547 10.6746 4.75422 10.7049C5.54734 11.061 6.56297 11.25 7.68359 11.25C8.80422 11.25 9.81984 11.061 10.6136 10.7049C10.6817 10.6746 10.743 10.6324 10.8086 10.5997V11.25C10.8086 11.4131 10.6111 11.6809 10.0467 11.9357C9.48297 12.1905 8.63547 12.375 7.68359 12.375C6.73172 12.375 5.88422 12.1905 5.32047 11.9357C4.75609 11.6809 4.55859 11.4126 4.55859 11.25V10.5997ZM17.0586 10.5997V11.25C17.0586 11.4131 16.8611 11.6809 16.2967 11.9357C15.733 12.1905 14.8855 12.375 13.9336 12.375C13.223 12.375 12.5811 12.285 12.0586 12.1286V11.0391C12.6323 11.1752 13.2573 11.25 13.9336 11.25C15.0542 11.25 16.0698 11.061 16.8636 10.7049C16.9317 10.6746 16.993 10.6324 17.0586 10.5997V10.5997ZM4.55859 12.8497C4.62422 12.8824 4.68547 12.9246 4.75422 12.9549C5.54734 13.311 6.56297 13.5 7.68359 13.5C8.80422 13.5 9.81984 13.311 10.6136 12.9549C10.6817 12.9246 10.743 12.8824 10.8086 12.8497V13.5C10.8086 13.6631 10.6111 13.9309 10.0467 14.1857C9.48297 14.4405 8.63547 14.625 7.68359 14.625C6.73172 14.625 5.88422 14.4405 5.32047 14.1857C4.75609 13.9309 4.55859 13.6626 4.55859 13.5V12.8497Z" fill="#17A966"/>
</svg>
