<svg width="26" height="26" viewBox="0 0 26 26" fill="none" xmlns="http://www.w3.org/2000/svg">
<path d="M21 21H5C4.46957 21 3.96086 20.7893 3.58579 20.4142C3.21071 20.0391 3 19.5304 3 19V6.913C3.02243 6.39779 3.24301 5.91116 3.61568 5.5547C3.98835 5.19824 4.4843 4.99951 5 5H21C21.5304 5 22.0391 5.21071 22.4142 5.58579C22.7893 5.96086 23 6.46957 23 7V19C23 19.5304 22.7893 20.0391 22.4142 20.4142C22.0391 20.7893 21.5304 21 21 21ZM5 8.868V19H21V8.868L13 14.2L5 8.868ZM5.8 7L13 11.8L20.2 7H5.8Z" fill="#4B4B4B"/>
<circle cx="22" cy="6" r="3" fill="#FD61AD"/>
</svg>
