<svg width="147" height="111" viewBox="0 0 147 111" fill="none" xmlns="http://www.w3.org/2000/svg">
<path d="M142.627 39.6458L107.007 4.03052C104.556 1.58503 101.235 0.211617 97.7729 0.211617C94.3106 0.211617 90.9896 1.58503 88.5387 4.03052L72.9918 19.5727C72.3864 18.441 71.6183 17.4042 70.7121 16.4954L58.0396 3.82282C55.5898 1.37502 52.2684 0 48.8053 0C45.3423 0 42.0209 1.37502 39.5711 3.82282L3.81891 39.5798C1.37341 42.0307 0 45.3517 0 48.814C0 52.2763 1.37341 55.5972 3.81891 58.0482L16.4867 70.7208C18.9377 73.1663 22.2586 74.5397 25.721 74.5397C29.1833 74.5397 32.5042 73.1663 34.9552 70.7208L70.7121 34.9638C70.9151 34.7609 71.1039 34.5532 71.2926 34.3408L95.0708 10.5579C95.7889 9.84403 96.7603 9.44327 97.7729 9.44327C98.7855 9.44327 99.7569 9.84403 100.475 10.5579L107.352 17.4346L113.171 23.2399C113.881 23.9574 114.279 24.9258 114.279 25.9349C114.279 26.944 113.881 27.9125 113.171 28.6299L77.0224 64.7739C76.3056 65.4901 75.3337 65.8924 74.3204 65.8924C73.3071 65.8924 72.3352 65.4901 71.6183 64.7739L61.4472 54.5697L54.9151 61.1019L65.1003 71.2872C67.5513 73.7327 70.8722 75.1061 74.3345 75.1061C77.7969 75.1061 81.1178 73.7327 83.5687 71.2872L119.689 35.1668C120.605 34.2526 121.379 33.2056 121.983 32.0612L136.104 46.178C136.818 46.8961 137.219 47.8675 137.219 48.88C137.219 49.8926 136.818 50.8641 136.104 51.5821L123.002 64.6842C122.285 65.4007 121.312 65.8031 120.298 65.8031C119.284 65.8031 118.311 65.4007 117.594 64.6842L108.357 55.4476L101.825 61.9797L111.066 71.2164C113.516 73.663 116.838 75.0372 120.3 75.0372C123.763 75.0372 127.084 73.663 129.535 71.2164L142.627 58.1143C145.07 55.6621 146.442 52.3416 146.442 48.88C146.442 45.4185 145.07 42.098 142.627 39.6458ZM28.4089 64.1886C27.6908 64.9025 26.7194 65.3032 25.7068 65.3032C24.6942 65.3032 23.7228 64.9025 23.0047 64.1886L10.3369 51.5161C9.62069 50.7992 9.21838 49.8273 9.21838 48.814C9.21838 47.8007 9.62069 46.8288 10.3369 46.1119L46.0891 10.355C46.806 9.63875 47.7778 9.23644 48.7912 9.23644C49.8045 9.23644 50.7764 9.63875 51.4932 10.355L64.1658 23.0276C64.8229 23.6866 65.2171 24.5626 65.2745 25.4915C65.3318 26.4203 65.0484 27.3382 64.4773 28.073L28.4089 64.1886Z" fill="url(#paint0_linear_2_7)"/>
<path d="M97.1238 86.0693H49.3362C47.1023 86.0693 45.2913 87.8802 45.2913 90.1141V91.4073C45.2913 93.6412 47.1023 95.4521 49.3362 95.4521H97.1238C99.3577 95.4521 101.169 93.6412 101.169 91.4073V90.1141C101.169 87.8802 99.3577 86.0693 97.1238 86.0693Z" fill="url(#paint1_linear_2_7)"/>
<path d="M90.0726 101.47H56.3923C54.1584 101.47 52.3475 103.281 52.3475 105.514V106.808C52.3475 109.042 54.1584 110.853 56.3923 110.853H90.0726C92.3065 110.853 94.1174 109.042 94.1174 106.808V105.514C94.1174 103.281 92.3065 101.47 90.0726 101.47Z" fill="url(#paint2_linear_2_7)"/>
<defs>
<linearGradient id="paint0_linear_2_7" x1="47.9109" y1="-3.37887" x2="152.525" y2="139.76" gradientUnits="userSpaceOnUse">
<stop stop-color="#F4C51D"/>
<stop offset="0.27" stop-color="#F052A0"/>
<stop offset="0.59" stop-color="#1EDEEB"/>
<stop offset="1" stop-color="#8DE971"/>
</linearGradient>
<linearGradient id="paint1_linear_2_7" x1="4.91068" y1="263.972" x2="228.098" y2="230.446" gradientUnits="userSpaceOnUse">
<stop stop-color="#F4C51D"/>
<stop offset="0.27" stop-color="#F052A0"/>
<stop offset="0.59" stop-color="#1EDEEB"/>
<stop offset="1" stop-color="#8DE971"/>
</linearGradient>
<linearGradient id="paint2_linear_2_7" x1="54.3156" y1="118.971" x2="114.021" y2="78.5411" gradientUnits="userSpaceOnUse">
<stop stop-color="#F4C51D"/>
<stop offset="0.27" stop-color="#F052A0"/>
<stop offset="0.59" stop-color="#1EDEEB"/>
<stop offset="1" stop-color="#8DE971"/>
</linearGradient>
</defs>
</svg>
