<svg width="190" height="34" viewBox="0 0 190 34" fill="none" xmlns="http://www.w3.org/2000/svg">
<path d="M66.1675 21.2827H63.6313V12.1295L61.2283 12.1743V21.2827H58.679V12.1295L56.276 12.1743V21.2827H53.7166V9.99133H56.276V10.4053L58.0537 10.1158C58.6485 10.0155 59.2499 9.95937 59.853 9.9479C60.4408 9.9479 60.8215 10.1158 60.9923 10.4517C61.6186 10.3552 62.2459 10.2543 62.8742 10.1491C63.502 10.0354 64.1373 9.96818 64.7749 9.9479C65.7062 9.9479 66.1719 10.4063 66.1719 11.3231L66.1675 21.2827Z" fill="#131319"/>
<path d="M75.1384 19.8855C75.1384 20.8178 74.6558 21.2834 73.6908 21.2825H69.277C68.3119 21.2825 67.8294 20.8168 67.8294 19.8855V11.3909C67.8294 10.4596 68.3119 9.99399 69.277 9.99399H73.6908C74.6558 9.99399 75.1384 10.4596 75.1384 11.3909V15.5383L74.4348 16.2477H70.2889V19.4107H72.6977V17.5288H75.1442L75.1384 19.8855ZM72.6919 14.5771V11.8715H70.2889V14.5771H72.6919Z" fill="#131319"/>
<path d="M84.3671 21.2827H81.7961V12.1294L79.3931 12.1743V21.2827H76.8337V9.9913H79.3931V10.4053C79.9895 10.3088 80.5821 10.2157 81.1708 10.1259C81.765 10.0197 82.3666 9.95967 82.9701 9.94641C83.9005 9.94641 84.3661 10.4048 84.3671 11.3216V21.2827Z" fill="#131319"/>
<path d="M90.9128 21.2824H88.0741C87.1273 21.2824 86.654 20.8167 86.654 19.8854V12.174H85.4481V9.99391H86.654V6.93221H89.2003V9.99391H90.8433V12.174H89.2003V19.1037H90.9099L90.9128 21.2824Z" fill="#131319"/>
<path d="M99.6232 19.8855C99.6232 20.8178 99.1499 21.2834 98.2031 21.2825H93.6214C92.6564 21.2825 92.1738 20.8168 92.1738 19.8855V11.3909C92.1738 10.4596 92.6564 9.99399 93.6214 9.99399H98.2031C99.1499 9.99399 99.6232 10.4596 99.6232 11.3909V19.8855ZM97.1189 19.1617V12.1321H94.6869V19.1617H97.1189Z" fill="#131319"/>
<path d="M108.419 14.712H105.883V12.1295L103.856 12.1743V21.2827H101.297V9.99133H103.856V10.4053L105.433 10.1158C105.958 10.0149 106.49 9.95876 107.025 9.9479C107.957 9.9479 108.423 10.4063 108.422 11.3231L108.419 14.712Z" fill="#131319"/>
<path d="M117.139 19.8855C117.139 20.8178 116.666 21.2834 115.719 21.2825H111.138C110.173 21.2825 109.69 20.8168 109.69 19.8855V11.3909C109.69 10.4596 110.173 9.99399 111.138 9.99399H115.719C116.666 9.99399 117.139 10.4596 117.139 11.3909V19.8855ZM114.635 19.1617V12.1321H112.217V19.1617H114.635Z" fill="#131319"/>
<path d="M126.128 19.8855C126.128 20.8178 125.654 21.2834 124.707 21.2825H120.271C119.305 21.2825 118.823 20.8168 118.823 19.8855V11.3909C118.823 10.4596 119.305 9.99399 120.271 9.99399H124.707C125.654 9.99399 126.128 10.4596 126.128 11.3909V14.0762H123.635V12.1321H121.337V19.1617H123.629V17.0048H126.122L126.128 19.8855Z" fill="#131319"/>
<path d="M135.098 19.8855C135.098 20.8178 134.616 21.2834 133.651 21.2825H129.235C128.27 21.2825 127.788 20.8168 127.788 19.8855V11.3909C127.788 10.4596 128.27 9.99399 129.235 9.99399H133.651C134.616 9.99399 135.098 10.4596 135.098 11.3909V15.5383L134.395 16.2419H130.247V19.4049H132.65V17.523H135.098V19.8855ZM132.65 14.5771V11.8715H130.247V14.5771H132.65Z" fill="#131319"/>
<path d="M144.065 21.2825H141.617V20.8916L139.88 21.1594C139.305 21.255 138.725 21.3111 138.143 21.3273C137.212 21.3273 136.747 20.8694 136.746 19.9535V15.8843C136.746 14.953 137.228 14.4874 138.193 14.4874H141.647V11.8947H139.199V13.5044H136.883V11.3909C136.883 10.4596 137.366 9.99399 138.331 9.99399H142.656C143.602 9.99399 144.075 10.4596 144.075 11.3909L144.065 21.2825ZM141.64 19.2558V16.2274H139.192V19.3456L141.64 19.2558Z" fill="#131319"/>
<path d="M153.275 21.2827H150.705V12.1294L148.302 12.1743V21.2827H145.743V9.9913H148.302V10.4053C148.897 10.3083 149.49 10.2157 150.078 10.1259C150.672 10.0198 151.274 9.95974 151.878 9.94641C152.81 9.94641 153.276 10.4048 153.275 11.3216V21.2827Z" fill="#131319"/>
<path d="M157.396 21.2824H154.882V18.5783H157.396V21.2824Z" fill="#131319"/>
<path d="M166.3 19.8855C166.3 20.8178 165.827 21.2834 164.88 21.2825H160.443C159.478 21.2825 158.996 20.8168 158.996 19.8855V11.3909C158.996 10.4596 159.478 9.99399 160.443 9.99399H164.88C165.827 9.99399 166.3 10.4596 166.3 11.3909V14.0762H163.807V12.1321H161.516V19.1617H163.807V17.0048H166.3V19.8855Z" fill="#131319"/>
<path d="M175.416 19.8855C175.416 20.8178 174.943 21.2834 173.997 21.2825H169.414C168.449 21.2825 167.966 20.8168 167.966 19.8855V11.3909C167.966 10.4596 168.449 9.99399 169.414 9.99399H173.997C174.943 9.99399 175.416 10.4596 175.416 11.3909V19.8855ZM172.913 19.1617V12.1321H170.487V19.1617H172.913Z" fill="#131319"/>
<path d="M189.55 21.2827H187.014V12.1295L184.611 12.1743V21.2827H182.062V12.1295L179.66 12.1743V21.2827H177.099V9.99133H179.66V10.4053L181.436 10.1158C182.031 10.0156 182.633 9.95943 183.236 9.9479C183.825 9.9479 184.204 10.1158 184.377 10.4517C185.002 10.3552 185.629 10.2543 186.258 10.1491C186.886 10.0354 187.521 9.96813 188.158 9.9479C189.09 9.9479 189.556 10.4063 189.555 11.3231L189.55 21.2827Z" fill="#131319"/>
<path d="M43.7456 12.1599L34.9253 3.33958L32.8204 1.23621C32.0687 0.486147 31.0501 0.0649057 29.9882 0.0649057C28.9262 0.0649057 27.9077 0.486147 27.1559 1.23621L22.3875 6.00319C22.2018 5.65609 21.9662 5.33809 21.6883 5.05934L17.8015 1.17251C17.0501 0.421736 16.0314 0 14.9692 0C13.907 0 12.8883 0.421736 12.137 1.17251L1.17131 12.1396C0.421242 12.8914 0 13.9099 0 14.9719C0 16.0338 0.421242 17.0524 1.17131 17.8041L5.05669 21.6909C5.80843 22.441 6.82701 22.8623 7.88894 22.8623C8.95088 22.8623 9.96945 22.441 10.7212 21.6909L21.6883 10.7238C21.7505 10.6616 21.8084 10.5979 21.8664 10.5328L29.1594 3.23825C29.3797 3.01929 29.6776 2.89637 29.9882 2.89637C30.2987 2.89637 30.5967 3.01929 30.8169 3.23825L32.9261 5.34741L34.711 7.12798C34.9287 7.34804 35.0507 7.64505 35.0507 7.95456C35.0507 8.26407 34.9287 8.5611 34.711 8.78116L23.6238 19.867C23.4039 20.0866 23.1058 20.21 22.795 20.21C22.4842 20.21 22.1861 20.0866 21.9662 19.867L18.8466 16.7372L16.8431 18.7407L19.9671 21.8647C20.7188 22.6147 21.7374 23.036 22.7993 23.036C23.8613 23.036 24.8799 22.6147 25.6316 21.8647L36.7102 10.7861C36.9912 10.5057 37.2283 10.1846 37.4137 9.83356L41.745 14.1634C41.9639 14.3836 42.0868 14.6816 42.0868 14.9921C42.0868 15.3027 41.9639 15.6007 41.745 15.8209L37.7264 19.8395C37.5063 20.0592 37.2079 20.1827 36.8969 20.1827C36.5859 20.1827 36.2875 20.0592 36.0674 19.8395L33.2344 17.0065L31.231 19.01L34.0654 21.843C34.8169 22.5934 35.8356 23.0149 36.8976 23.0149C37.9597 23.0149 38.9783 22.5934 39.7299 21.843L43.7456 17.8244C44.4949 17.0723 44.9157 16.0538 44.9157 14.9921C44.9157 13.9304 44.4949 12.912 43.7456 12.1599ZM8.71336 19.6875C8.49312 19.9064 8.19517 20.0293 7.8846 20.0293C7.57404 20.0293 7.27608 19.9064 7.05584 19.6875L3.17046 15.8006C2.95079 15.5808 2.82739 15.2827 2.82739 14.9719C2.82739 14.6611 2.95079 14.363 3.17046 14.1431L14.1361 3.176C14.356 2.95633 14.6541 2.83293 14.9649 2.83293C15.2757 2.83293 15.5738 2.95633 15.7936 3.176L19.6805 7.06285C19.882 7.26496 20.0029 7.53366 20.0205 7.81855C20.0381 8.10344 19.9512 8.38496 19.776 8.61034L16.157 12.2294L8.71336 19.6875Z" fill="url(#paint0_linear_3_9)"/>
<path d="M29.7893 26.3985H15.1322C14.447 26.3985 13.8916 26.954 13.8916 27.6391V28.0358C13.8916 28.7209 14.447 29.2764 15.1322 29.2764H29.7893C30.4744 29.2764 31.0298 28.7209 31.0298 28.0358V27.6391C31.0298 26.954 30.4744 26.3985 29.7893 26.3985Z" fill="url(#paint1_linear_3_9)"/>
<path d="M27.6265 31.1223H17.2963C16.6111 31.1223 16.0557 31.6777 16.0557 32.3628V32.7595C16.0557 33.4447 16.6111 34.0001 17.2963 34.0001H27.6265C28.3116 34.0001 28.8671 33.4447 28.8671 32.7595V32.3628C28.8671 31.6777 28.3116 31.1223 27.6265 31.1223Z" fill="url(#paint2_linear_3_9)"/>
<defs>
<linearGradient id="paint0_linear_3_9" x1="14.6949" y1="-0.702154" x2="32.8422" y2="35.9456" gradientUnits="userSpaceOnUse">
<stop stop-color="#F4C51D"/>
<stop offset="0.27" stop-color="#F052A0"/>
<stop offset="0.59" stop-color="#1EDEEB"/>
<stop offset="1" stop-color="#8DE971"/>
</linearGradient>
<linearGradient id="paint1_linear_3_9" x1="14.4663" y1="33.2515" x2="32.7786" y2="20.8513" gradientUnits="userSpaceOnUse">
<stop stop-color="#F4C51D"/>
<stop offset="0.27" stop-color="#F052A0"/>
<stop offset="0.59" stop-color="#1EDEEB"/>
<stop offset="1" stop-color="#8DE971"/>
</linearGradient>
<linearGradient id="paint2_linear_3_9" x1="16.6593" y1="36.49" x2="34.9716" y2="24.0898" gradientUnits="userSpaceOnUse">
<stop stop-color="#F4C51D"/>
<stop offset="0.27" stop-color="#F052A0"/>
<stop offset="0.59" stop-color="#1EDEEB"/>
<stop offset="1" stop-color="#8DE971"/>
</linearGradient>
</defs>
</svg>
